<svg xmlns="http://www.w3.org/2000/svg" viewBox="0 0 24 24">
  <path fill="#c94c28" d="M12 15.5A3.5 3.5 0 0 1 8.5 12 3.5 3.5 0 0 1 12 8.5a3.5 3.5 0 0 1 3.5 3.5 3.5 3.5 0 0 1-3.5 3.5m7.43-2.92c.04-.32.07-.64.07-.98s-.03-.67-.07-1l2.16-1.63c.19-.15.24-.42.12-.64l-2.04-3.53c-.12-.22-.39-.3-.61-.22l-2.56 1.03c-.52-.4-1.08-.73-1.69-.98L14.25 2.5c-.05-.24-.27-.42-.52-.42h-4.08c-.24 0-.46.18-.5.42L8.81 5.08c-.61.25-1.17.58-1.69.98L4.56 5.03c-.23-.09-.49 0-.61.22L1.91 8.78c-.13.22-.07.49.12.64L4.19 11.05c-.04.33-.07.66-.07 1s.03.67.07 1L2.03 14.68c-.19.15-.24.42-.12.64l2.04 3.53c.12.22.39.3.61.22l2.56-1.03c.52.4 1.08.73 1.69.98l.34 2.58c.05.24.27.42.52.42h4.08c.24 0 .46-.18.5-.42l.34-2.58c.61-.25 1.17-.58 1.69-.98l2.56 1.03c.23.09.49 0 .61-.22l2.04-3.53c.12-.22.07-.49-.12-.64l-2.16-1.63z"/>
</svg>
